<?xml version="1.0" standalone="no"?>
<!DOCTYPE svg PUBLIC "-//W3C//DTD SVG 20010904//EN"
 "http://www.w3.org/TR/2001/REC-SVG-20010904/DTD/svg10.dtd">
<svg version="1.0" xmlns="http://www.w3.org/2000/svg"
 width="1024.000000pt" height="1024.000000pt" viewBox="0 0 1024.000000 1024.000000"
 preserveAspectRatio="xMidYMid meet">
<metadata>
Created by potrace 1.14, written by Peter Selinger 2001-2017
</metadata>
<g transform="translate(0.000000,1024.000000) scale(0.100000,-0.100000)"
fill="#000000" stroke="none">
<path d="M2124 9611 c-2 -2 -48 -3 -102 -2 -99 2 -99 2 -104 -23 -3 -15 -1
-26 3 -26 5 0 4 -11 -1 -24 -5 -15 -5 -27 3 -35 13 -13 17 -12 -75 -14 l-72
-2 -1 -70 0 -70 -45 -1 c-86 -3 -80 2 -78 -61 3 -65 11 -59 -89 -62 l-32 -1 0
-2236 c0 -1230 -3 -2239 -6 -2243 -4 -3 -63 -6 -133 -6 l-127 0 0 -50 c0 -27
-3 -55 -7 -61 -5 -8 -46 -11 -123 -10 l-115 2 -1 -36 c-1 -19 0 -45 0 -57 3
-29 -11 -35 -83 -37 l-61 -1 0 -188 c0 -173 4 -223 18 -200 4 6 60 8 119 4 4
-1 6 -28 5 -61 -2 -58 -1 -60 23 -61 14 0 33 -2 43 -4 9 -2 17 1 17 6 0 6 5 7
11 3 15 -9 109 -11 109 -2 0 4 7 5 15 2 23 -9 118 -9 133 -1 6 5 12 5 12 0 0
-4 34 -8 76 -8 l76 0 -1 -382 c-1 -372 0 -383 19 -393 13 -7 20 -7 20 -1 0 7
9 7 26 1 16 -7 23 -7 19 0 -4 6 2 7 17 1 20 -7 23 -15 23 -59 0 -28 4 -54 8
-59 5 -4 32 -8 60 -8 l52 0 2 -55 c0 -30 1 -58 2 -62 1 -3 28 -5 61 -4 33 1
64 0 68 -3 11 -7 24 -44 14 -37 -6 3 -7 -10 -3 -71 1 -9 26 -13 89 -12 48 0
103 0 123 0 l37 -1 -2 -70 -2 -70 41 -1 c22 0 82 0 133 0 84 0 92 -2 93 -20 0
-10 2 -38 2 -61 l2 -43 118 0 c93 0 120 -3 127 -15 5 -8 6 -19 2 -25 -7 -9 -8
-33 -3 -71 1 -8 42 -11 131 -10 109 1 130 -1 131 -14 1 -8 2 -34 3 -58 1 -30
6 -46 19 -53 12 -7 17 -7 17 1 0 6 5 8 11 5 15 -10 149 -11 149 -2 0 4 7 4 16
-1 9 -5 34 -6 55 -2 21 4 39 4 39 -1 0 -5 11 -4 25 1 33 12 38 1 39 -79 l1
-65 388 0 387 0 0 -62 0 -63 60 3 c39 2 60 0 61 -8 0 -6 1 -33 2 -61 l2 -50
61 -3 61 -3 -2 -117 c0 -64 1 -124 3 -133 3 -14 15 -16 63 -15 33 1 63 -1 68
-4 13 -9 21 -39 11 -45 -7 -4 -6 -13 0 -25 7 -13 7 -21 0 -25 -6 -4 -7 -13 -1
-23 6 -11 6 -24 0 -35 -7 -11 -6 -17 1 -17 7 0 8 -6 1 -18 -7 -13 -7 -22 0
-29 8 -8 7 -13 0 -17 -8 -5 -8 -13 -1 -26 7 -13 7 -21 0 -25 -7 -4 -7 -12 0
-25 7 -13 7 -21 0 -25 -7 -4 -7 -13 0 -26 8 -13 7 -19 0 -19 -7 0 -8 -6 0 -19
7 -13 7 -22 0 -26 -7 -4 -7 -13 0 -26 6 -11 7 -19 1 -19 -5 0 -7 -8 -4 -19 4
-17 -1 -19 -62 -19 -36 0 -69 -3 -72 -6 -4 -3 -7 -86 -7 -184 l-1 -177 -45 -1
c-25 -1 -52 -2 -61 -3 -13 -1 -15 -20 -15 -125 1 -68 5 -128 9 -132 4 -4 31
-8 60 -8 l52 -1 0 -50 c1 -69 6 -75 70 -71 29 2 58 0 63 -3 13 -9 23 -41 12
-41 -5 0 -5 -13 0 -30 5 -16 5 -30 0 -30 -4 0 -6 -9 -3 -19 5 -18 18 -19 259
-19 l254 0 1 26 c1 37 1 116 0 183 l-1 56 -66 -1 c-36 -1 -68 2 -71 7 -3 5 -5
34 -4 63 1 37 -3 54 -12 55 -61 4 -74 3 -71 -3 6 -10 -29 3 -36 13 -3 4 -5 90
-5 191 l1 183 61 5 61 5 1 382 c0 370 -1 382 -20 388 -11 4 -32 6 -47 5 -60
-4 -57 -10 -57 122 l0 123 -59 0 -60 0 -2 60 -2 61 891 0 892 0 0 -183 c0
-157 -2 -183 -15 -184 -8 -1 -35 -2 -60 -3 l-45 -1 -1 -50 c-3 -100 3 -91 -63
-90 l-59 1 -4 -33 c-2 -18 0 -33 5 -33 4 0 5 -6 1 -12 -9 -15 -9 -110 -1 -133
4 -8 3 -15 -1 -15 -4 0 -7 -12 -6 -27 1 -16 3 -48 3 -73 l1 -45 183 1 c100 1
187 2 193 3 7 0 12 20 12 44 1 81 -3 76 55 74 28 -1 57 2 62 7 6 5 8 28 6 53
-4 50 13 80 35 62 9 -8 14 -8 14 -1 0 9 35 8 66 -2 6 -2 9 -26 8 -55 -2 -28 2
-53 7 -57 15 -9 172 -9 187 0 7 4 12 4 12 -1 0 -9 148 -9 171 1 12 5 15 19 14
54 -2 26 -1 51 1 57 3 6 29 10 62 8 l57 -2 1 194 0 195 -61 0 -62 0 2 52 c1
73 0 75 -52 72 -60 -4 -87 10 -73 36 6 11 7 20 3 20 -7 0 -9 28 -4 60 1 3 170
6 376 5 422 0 384 -8 381 83 -1 51 0 53 29 61 16 4 34 6 39 3 12 -7 57 -9 51
-3 -2 2 0 12 5 22 7 12 7 20 0 24 -6 4 -7 12 -3 18 4 7 6 22 4 35 -3 24 -4 23
84 26 l59 1 1 1145 0 1145 60 0 60 0 1 -50 c1 -27 2 -55 3 -61 1 -8 37 -11
111 -10 61 0 116 -1 123 -4 7 -3 12 -26 12 -60 l0 -55 95 -2 c52 -1 164 -2
249 -3 174 -2 168 -5 166 78 -2 46 -8 43 90 46 l50 1 1 45 c1 25 2 52 3 61 1
13 12 16 56 14 31 -1 58 2 61 6 3 5 5 37 5 73 1 46 5 66 15 70 8 3 14 1 14 -4
0 -5 13 -5 30 0 17 5 32 5 35 0 3 -5 11 -7 18 -4 8 3 12 40 12 127 l0 122 70
0 70 0 1 643 c0 448 -3 642 -10 644 -6 0 -33 2 -61 3 -27 1 -55 3 -61 4 -6 0
-10 25 -9 61 l1 60 -33 -4 c-18 -2 -33 1 -33 6 0 5 -5 6 -11 2 -7 -4 -48 -7
-93 -7 l-81 0 0 -61 0 -61 -65 -1 c-36 -1 -67 -2 -70 -3 -3 0 -5 -286 -4 -633
0 -348 -2 -638 -4 -644 -2 -8 -21 -11 -50 -9 -65 4 -74 -2 -72 -44 4 -79 4
-78 -47 -79 -27 0 -57 -1 -68 -1 -11 -1 -45 0 -75 0 -30 1 -66 1 -80 0 -22 -1
-62 2 -108 7 -9 1 -13 15 -12 40 4 84 14 78 -120 77 -101 0 -120 2 -121 15 -1
8 -2 35 -3 60 -1 49 6 46 -96 49 l-26 1 1 1661 c0 913 -2 1664 -5 1668 -3 4
-34 7 -70 7 -43 -1 -65 3 -65 11 0 6 -3 14 -7 18 -3 4 -3 19 2 34 13 45 -4 61
-61 59 -27 0 -53 2 -56 6 -4 4 -6 31 -5 61 1 53 0 55 -26 56 -15 0 -43 1 -62
2 l-35 2 0 70 0 70 -133 0 c-112 -1 -132 2 -133 15 0 8 0 36 1 62 1 48 1 48
-29 44 -17 -2 -31 0 -31 5 0 5 -7 6 -15 2 -9 -3 -44 -5 -78 -5 -87 0 -101 1
-94 9 4 3 2 12 -4 20 -6 7 -7 13 -2 13 10 0 11 65 1 75 -4 4 -58 7 -120 7 -62
-1 -120 1 -129 4 -13 3 -15 16 -13 59 2 30 0 56 -4 56 -4 1 -59 2 -122 3 -93
1 -115 4 -116 16 -1 8 -2 40 -3 71 l-1 56 -117 -1 c-65 -1 -125 2 -135 6 -12
6 -15 19 -13 52 1 24 -1 49 -5 56 -4 7 -71 11 -209 11 -112 0 -205 -1 -206 -3
-2 -2 -272 -1 -600 2 -328 3 -598 3 -600 0 -2 -3 -56 -3 -120 0 -64 3 -118 3
-120 0 -2 -3 -56 -3 -120 0 -64 3 -118 3 -120 0 -2 -3 -56 -3 -120 0 -64 3
-118 3 -120 0 -2 -3 -272 -3 -600 0 -328 3 -598 3 -600 0 -2 -3 -56 -3 -120 0
-64 3 -118 3 -120 0 -2 -3 -56 -3 -120 0 -64 3 -118 3 -120 0 -2 -3 -56 -3
-120 0 -64 3 -118 3 -121 1z"/>
</g>
</svg>
